<?xml version="1.0" standalone="no"?>
<!DOCTYPE svg PUBLIC "-//W3C//DTD SVG 20010904//EN"
 "http://www.w3.org/TR/2001/REC-SVG-20010904/DTD/svg10.dtd">
<svg version="1.0" xmlns="http://www.w3.org/2000/svg"
 width="564.000000pt" height="564.000000pt" viewBox="0 0 564.000000 564.000000"
 preserveAspectRatio="xMidYMid meet">
<metadata>
Created by potrace 1.11, written by Peter Selinger 2001-2013
</metadata>
<g transform="translate(0.000000,564.000000) scale(0.100000,-0.100000)"
fill="#000000" stroke="none">
<path d="M2619 5636 c-2 -2 -35 -6 -74 -10 -38 -3 -97 -10 -130 -16 -33 -6
-76 -13 -95 -16 -224 -36 -526 -137 -766 -256 -137 -68 -167 -86 -309 -181
-562 -376 -972 -951 -1148 -1607 -23 -84 -30 -119 -52 -235 -29 -151 -38 -260
-39 -460 -1 -193 8 -386 18 -404 2 -3 7 -30 10 -60 4 -29 8 -56 10 -60 2 -3 7
-26 10 -51 3 -25 13 -73 22 -105 9 -33 18 -71 20 -84 9 -44 66 -216 106 -315
308 -775 944 -1373 1735 -1632 95 -31 167 -52 203 -59 8 -2 38 -9 65 -15 84
-20 266 -50 345 -58 148 -14 586 -6 643 13 7 2 30 6 52 9 64 9 107 17 150 27
22 5 51 12 65 15 14 3 50 12 80 20 30 8 63 17 74 19 86 20 367 131 489 194
485 250 891 637 1162 1106 93 160 216 450 261 611 30 108 54 208 59 249 3 22
8 47 11 56 3 10 6 30 8 45 2 16 7 48 10 71 18 114 23 237 20 428 -2 116 -6
221 -8 235 -2 14 -7 48 -10 75 -13 106 -51 288 -87 414 -141 494 -420 946
-799 1293 -278 255 -575 438 -920 566 -120 44 -252 86 -311 97 -12 2 -28 6
-37 9 -31 10 -202 41 -332 61 -45 7 -505 17 -511 11z"/>
</g>
</svg>
